<mxfile host="65bd71144e" modified="2023-01-05T11:01:43.901Z" agent="5.0 (X11; Linux x86_64) AppleWebKit/537.36 (KHTML, like Gecko) Code/1.74.2 Chrome/102.0.5005.167 Electron/19.1.8 Safari/537.36" etag="cOBl3BG2zSrsr2PokDHe" version="20.7.4" type="embed" pages="4">
    <diagram id="01UckxqNyX5zfgqnBm6K" name="blockchain-structure">
        <mxGraphModel dx="1549" dy="1580" grid="1" gridSize="10" guides="1" tooltips="1" connect="1" arrows="1" fold="1" page="1" pageScale="1" pageWidth="827" pageHeight="1169" math="0" shadow="0">
            <root>
                <mxCell id="0"/>
                <mxCell id="1" parent="0"/>
                <mxCell id="dlfoiRqMnFKDiQGNqVCU-50" style="edgeStyle=orthogonalEdgeStyle;rounded=1;orthogonalLoop=1;jettySize=auto;html=1;exitX=0;exitY=0.5;exitDx=0;exitDy=0;shadow=1;strokeWidth=3;fontSize=15;entryX=1.002;entryY=0.511;entryDx=0;entryDy=0;entryPerimeter=0;strokeColor=#878787;" parent="1" source="dlfoiRqMnFKDiQGNqVCU-40" target="Gfbxat_Uo33sC0G4bh7W-8" edge="1">
                    <mxGeometry relative="1" as="geometry">
                        <mxPoint x="280" y="130" as="targetPoint"/>
                    </mxGeometry>
                </mxCell>
                <mxCell id="XSC_fGqIHePmKKuiNUnX-34" style="edgeStyle=orthogonalEdgeStyle;rounded=1;orthogonalLoop=1;jettySize=auto;html=1;exitX=0.01;exitY=0.62;exitDx=0;exitDy=0;entryX=1.008;entryY=0.531;entryDx=0;entryDy=0;shadow=1;strokeWidth=3;entryPerimeter=0;exitPerimeter=0;" parent="1" source="Gfbxat_Uo33sC0G4bh7W-9" target="Gfbxat_Uo33sC0G4bh7W-2" edge="1">
                    <mxGeometry relative="1" as="geometry">
                        <mxPoint y="152.5" as="targetPoint"/>
                        <mxPoint x="100" y="175" as="sourcePoint"/>
                        <Array as="points">
                            <mxPoint x="40" y="184"/>
                            <mxPoint x="40" y="148"/>
                        </Array>
                    </mxGeometry>
                </mxCell>
                <mxCell id="XSC_fGqIHePmKKuiNUnX-129" value="" style="group;shadow=1;fillColor=none;" parent="1" vertex="1" connectable="0">
                    <mxGeometry x="143" y="252" width="280" height="280" as="geometry"/>
                </mxCell>
                <mxCell id="XSC_fGqIHePmKKuiNUnX-126" value="" style="ellipse;whiteSpace=wrap;html=1;aspect=fixed;rounded=1;shadow=1;glass=0;comic=0;sketch=0;fillColor=#eeeeee;strokeColor=#36393d;" parent="XSC_fGqIHePmKKuiNUnX-129" vertex="1">
                    <mxGeometry width="280" height="280" as="geometry"/>
                </mxCell>
                <mxCell id="XSC_fGqIHePmKKuiNUnX-127" value="" style="endArrow=none;html=1;rounded=0;entryX=1;entryY=0;entryDx=0;entryDy=0;exitX=0;exitY=0;exitDx=0;exitDy=0;strokeWidth=4;shadow=1;" parent="XSC_fGqIHePmKKuiNUnX-129" source="XSC_fGqIHePmKKuiNUnX-126" target="XSC_fGqIHePmKKuiNUnX-126" edge="1">
                    <mxGeometry width="50" height="50" relative="1" as="geometry">
                        <mxPoint x="-115" y="150" as="sourcePoint"/>
                        <mxPoint x="-65" y="100" as="targetPoint"/>
                    </mxGeometry>
                </mxCell>
                <mxCell id="Gfbxat_Uo33sC0G4bh7W-19" value="" style="group;shadow=1;fillColor=default;rounded=1;shape=mxgraph.basic.rect;topLeftStyle=rounded;topRightStyle=rounded;" parent="1" vertex="1" connectable="0">
                    <mxGeometry x="116" y="130" width="140" height="120" as="geometry"/>
                </mxCell>
                <mxCell id="Gfbxat_Uo33sC0G4bh7W-8" value="&lt;div align=&quot;right&quot;&gt;&amp;nbsp;&lt;b&gt;3GH67&amp;nbsp; &lt;br&gt;&lt;/b&gt;&lt;/div&gt;" style="rounded=1;whiteSpace=wrap;html=1;shadow=0;shape=mxgraph.basic.rect;top=1;topLeftStyle=rounded;topRightStyle=rounded;rotation=0;fillColor=#FFA700;align=right;" parent="Gfbxat_Uo33sC0G4bh7W-19" vertex="1">
                    <mxGeometry width="140" height="30" as="geometry"/>
                </mxCell>
                <mxCell id="Gfbxat_Uo33sC0G4bh7W-9" value="&lt;div align=&quot;left&quot;&gt;&lt;b&gt;PrevHash&lt;/b&gt;: 6H2DF&lt;/div&gt;" style="rounded=0;whiteSpace=wrap;html=1;shadow=0;rotation=0;fillColor=#F9F7ED;align=left;" parent="Gfbxat_Uo33sC0G4bh7W-19" vertex="1">
                    <mxGeometry y="30" width="140" height="30" as="geometry"/>
                </mxCell>
                <mxCell id="Gfbxat_Uo33sC0G4bh7W-10" value="" style="rounded=0;whiteSpace=wrap;html=1;fillColor=#eeeeee;strokeColor=#36393d;shadow=0;" parent="Gfbxat_Uo33sC0G4bh7W-19" vertex="1">
                    <mxGeometry y="60" width="140" height="60" as="geometry"/>
                </mxCell>
                <mxCell id="Gfbxat_Uo33sC0G4bh7W-11" value="" style="rounded=0;whiteSpace=wrap;html=1;connectable=0;recursiveResize=0;expand=0;fillColor=#ffff88;strokeColor=#36393d;shadow=1;" parent="Gfbxat_Uo33sC0G4bh7W-19" vertex="1">
                    <mxGeometry x="5" y="64" width="20" height="15" as="geometry"/>
                </mxCell>
                <mxCell id="Gfbxat_Uo33sC0G4bh7W-12" value="&lt;font size=&quot;1&quot;&gt;&lt;b style=&quot;font-size: 15px;&quot;&gt;2&lt;/b&gt;&lt;/font&gt;" style="ellipse;whiteSpace=wrap;html=1;aspect=fixed;rounded=0;shadow=1;glass=0;comic=1;sketch=0;jiggle=1;strokeWidth=2;" parent="Gfbxat_Uo33sC0G4bh7W-19" vertex="1">
                    <mxGeometry x="6" y="2.75" width="22.5" height="22.5" as="geometry"/>
                </mxCell>
                <mxCell id="Gfbxat_Uo33sC0G4bh7W-17" value="" style="rounded=0;whiteSpace=wrap;html=1;connectable=0;recursiveResize=0;expand=0;fillColor=#ffff88;strokeColor=#36393d;shadow=1;" parent="Gfbxat_Uo33sC0G4bh7W-19" vertex="1">
                    <mxGeometry x="15" y="74" width="20" height="15" as="geometry"/>
                </mxCell>
                <mxCell id="Gfbxat_Uo33sC0G4bh7W-18" value="" style="rounded=0;whiteSpace=wrap;html=1;connectable=0;recursiveResize=0;expand=0;fillColor=#ffff88;strokeColor=#36393d;shadow=1;" parent="Gfbxat_Uo33sC0G4bh7W-19" vertex="1">
                    <mxGeometry x="25" y="84" width="20" height="15" as="geometry"/>
                </mxCell>
                <mxCell id="XSC_fGqIHePmKKuiNUnX-123" value="" style="ellipse;whiteSpace=wrap;html=1;aspect=fixed;rounded=1;shadow=1;glass=0;comic=0;sketch=0;fillColor=none;dashed=1;" parent="1" vertex="1">
                    <mxGeometry x="115" y="181" width="60" height="60" as="geometry"/>
                </mxCell>
                <mxCell id="XSC_fGqIHePmKKuiNUnX-124" value="" style="endArrow=none;dashed=1;html=1;dashPattern=1 3;strokeWidth=2;rounded=0;exitX=0;exitY=0;exitDx=0;exitDy=0;shadow=1;" parent="1" source="XSC_fGqIHePmKKuiNUnX-126" target="XSC_fGqIHePmKKuiNUnX-123" edge="1">
                    <mxGeometry width="50" height="50" relative="1" as="geometry">
                        <mxPoint x="270" y="330" as="sourcePoint"/>
                        <mxPoint x="190" y="280" as="targetPoint"/>
                    </mxGeometry>
                </mxCell>
                <mxCell id="dlfoiRqMnFKDiQGNqVCU-15" style="edgeStyle=orthogonalEdgeStyle;rounded=1;orthogonalLoop=1;jettySize=auto;html=1;exitX=0;exitY=0.5;exitDx=0;exitDy=0;entryX=0.997;entryY=0.507;entryDx=0;entryDy=0;entryPerimeter=0;fontSize=15;strokeWidth=3;shadow=1;" parent="1" source="dlfoiRqMnFKDiQGNqVCU-5" target="Gfbxat_Uo33sC0G4bh7W-8" edge="1">
                    <mxGeometry relative="1" as="geometry"/>
                </mxCell>
                <mxCell id="dlfoiRqMnFKDiQGNqVCU-14" value="" style="group" parent="1" vertex="1" connectable="0">
                    <mxGeometry x="321" y="130" width="140" height="120" as="geometry"/>
                </mxCell>
                <mxCell id="dlfoiRqMnFKDiQGNqVCU-1" value="" style="group" parent="dlfoiRqMnFKDiQGNqVCU-14" vertex="1" connectable="0">
                    <mxGeometry width="140" height="120" as="geometry"/>
                </mxCell>
                <mxCell id="dlfoiRqMnFKDiQGNqVCU-2" value="" style="rounded=0;whiteSpace=wrap;html=1;shadow=1;fillColor=default;rotation=0;shape=mxgraph.basic.rect;topLeftStyle=rounded;topRightStyle=rounded;" parent="dlfoiRqMnFKDiQGNqVCU-1" vertex="1">
                    <mxGeometry width="140" height="120" as="geometry"/>
                </mxCell>
                <mxCell id="dlfoiRqMnFKDiQGNqVCU-3" value="" style="group" parent="dlfoiRqMnFKDiQGNqVCU-1" vertex="1" connectable="0">
                    <mxGeometry width="140" height="120" as="geometry"/>
                </mxCell>
                <mxCell id="dlfoiRqMnFKDiQGNqVCU-4" value="&lt;div align=&quot;right&quot;&gt;&amp;nbsp;&lt;b&gt;F7R3U&amp;nbsp; &lt;br&gt;&lt;/b&gt;&lt;/div&gt;" style="rounded=1;whiteSpace=wrap;html=1;shadow=0;shape=mxgraph.basic.rect;top=1;topLeftStyle=rounded;topRightStyle=rounded;rotation=0;fillColor=#FFA700;align=right;" parent="dlfoiRqMnFKDiQGNqVCU-3" vertex="1">
                    <mxGeometry width="140" height="30" as="geometry"/>
                </mxCell>
                <mxCell id="dlfoiRqMnFKDiQGNqVCU-5" value="&lt;div align=&quot;left&quot;&gt;&lt;b&gt;PrevHash&lt;/b&gt;:&lt;b&gt;&lt;/b&gt;&amp;nbsp; 3GH67&lt;b&gt;&lt;br&gt;&lt;/b&gt;&lt;/div&gt;" style="rounded=0;whiteSpace=wrap;html=1;shadow=0;rotation=0;fillColor=#F9F7ED;align=left;" parent="dlfoiRqMnFKDiQGNqVCU-3" vertex="1">
                    <mxGeometry y="30" width="140" height="30" as="geometry"/>
                </mxCell>
                <mxCell id="dlfoiRqMnFKDiQGNqVCU-6" value="" style="rounded=0;whiteSpace=wrap;html=1;fillColor=#eeeeee;strokeColor=#36393d;shadow=0;" parent="dlfoiRqMnFKDiQGNqVCU-3" vertex="1">
                    <mxGeometry y="60" width="140" height="60" as="geometry"/>
                </mxCell>
                <mxCell id="dlfoiRqMnFKDiQGNqVCU-7" value="" style="rounded=0;whiteSpace=wrap;html=1;connectable=0;recursiveResize=0;expand=0;fillColor=#ffff88;strokeColor=#36393d;shadow=1;" parent="dlfoiRqMnFKDiQGNqVCU-3" vertex="1">
                    <mxGeometry x="5" y="64" width="20" height="15" as="geometry"/>
                </mxCell>
                <mxCell id="dlfoiRqMnFKDiQGNqVCU-8" value="&lt;font size=&quot;1&quot;&gt;&lt;b style=&quot;font-size: 15px;&quot;&gt;3&lt;/b&gt;&lt;/font&gt;" style="ellipse;whiteSpace=wrap;html=1;aspect=fixed;rounded=0;shadow=1;glass=0;comic=1;sketch=0;jiggle=1;strokeWidth=2;" parent="dlfoiRqMnFKDiQGNqVCU-3" vertex="1">
                    <mxGeometry x="6" y="2.75" width="22.5" height="22.5" as="geometry"/>
                </mxCell>
                <mxCell id="dlfoiRqMnFKDiQGNqVCU-9" value="" style="rounded=0;whiteSpace=wrap;html=1;connectable=0;recursiveResize=0;expand=0;fillColor=#ffff88;strokeColor=#36393d;shadow=1;" parent="dlfoiRqMnFKDiQGNqVCU-14" vertex="1">
                    <mxGeometry x="15" y="74" width="20" height="15" as="geometry"/>
                </mxCell>
                <mxCell id="dlfoiRqMnFKDiQGNqVCU-10" value="" style="rounded=0;whiteSpace=wrap;html=1;connectable=0;recursiveResize=0;expand=0;fillColor=#ffff88;strokeColor=#36393d;shadow=1;" parent="dlfoiRqMnFKDiQGNqVCU-14" vertex="1">
                    <mxGeometry x="25" y="84" width="20" height="15" as="geometry"/>
                </mxCell>
                <mxCell id="dlfoiRqMnFKDiQGNqVCU-11" value="" style="rounded=0;whiteSpace=wrap;html=1;connectable=0;recursiveResize=0;expand=0;fillColor=#ffff88;strokeColor=#36393d;shadow=1;" parent="dlfoiRqMnFKDiQGNqVCU-14" vertex="1">
                    <mxGeometry x="35" y="94" width="20" height="15" as="geometry"/>
                </mxCell>
                <mxCell id="dlfoiRqMnFKDiQGNqVCU-12" value="" style="rounded=0;whiteSpace=wrap;html=1;connectable=0;recursiveResize=0;expand=0;fillColor=#ffff88;strokeColor=#36393d;shadow=1;" parent="dlfoiRqMnFKDiQGNqVCU-14" vertex="1">
                    <mxGeometry x="45" y="64" width="20" height="15" as="geometry"/>
                </mxCell>
                <mxCell id="dlfoiRqMnFKDiQGNqVCU-13" value="" style="rounded=0;whiteSpace=wrap;html=1;connectable=0;recursiveResize=0;expand=0;fillColor=#ffff88;strokeColor=#36393d;shadow=1;" parent="dlfoiRqMnFKDiQGNqVCU-14" vertex="1">
                    <mxGeometry x="55" y="74" width="20" height="15" as="geometry"/>
                </mxCell>
                <mxCell id="dlfoiRqMnFKDiQGNqVCU-34" style="edgeStyle=orthogonalEdgeStyle;rounded=1;orthogonalLoop=1;jettySize=auto;html=1;exitX=0;exitY=0.5;exitDx=0;exitDy=0;entryX=1.011;entryY=0.507;entryDx=0;entryDy=0;entryPerimeter=0;shadow=1;strokeWidth=3;fontSize=15;" parent="1" source="dlfoiRqMnFKDiQGNqVCU-21" target="dlfoiRqMnFKDiQGNqVCU-4" edge="1">
                    <mxGeometry relative="1" as="geometry"/>
                </mxCell>
                <mxCell id="dlfoiRqMnFKDiQGNqVCU-33" value="" style="group" parent="1" vertex="1" connectable="0">
                    <mxGeometry x="531" y="130" width="140" height="120" as="geometry"/>
                </mxCell>
                <mxCell id="dlfoiRqMnFKDiQGNqVCU-16" value="" style="group" parent="dlfoiRqMnFKDiQGNqVCU-33" vertex="1" connectable="0">
                    <mxGeometry width="140" height="120" as="geometry"/>
                </mxCell>
                <mxCell id="dlfoiRqMnFKDiQGNqVCU-17" value="" style="group" parent="dlfoiRqMnFKDiQGNqVCU-16" vertex="1" connectable="0">
                    <mxGeometry width="140" height="120" as="geometry"/>
                </mxCell>
                <mxCell id="dlfoiRqMnFKDiQGNqVCU-18" value="" style="rounded=0;whiteSpace=wrap;html=1;shadow=1;fillColor=default;rotation=0;shape=mxgraph.basic.rect;topLeftStyle=rounded;topRightStyle=rounded;" parent="dlfoiRqMnFKDiQGNqVCU-17" vertex="1">
                    <mxGeometry width="140" height="120" as="geometry"/>
                </mxCell>
                <mxCell id="dlfoiRqMnFKDiQGNqVCU-19" value="" style="group" parent="dlfoiRqMnFKDiQGNqVCU-17" vertex="1" connectable="0">
                    <mxGeometry width="140" height="120" as="geometry"/>
                </mxCell>
                <mxCell id="dlfoiRqMnFKDiQGNqVCU-20" value="&lt;div align=&quot;right&quot;&gt;&amp;nbsp;&lt;b&gt;H467G&amp;nbsp; &lt;/b&gt;&lt;br&gt;&lt;/div&gt;" style="rounded=1;whiteSpace=wrap;html=1;shadow=0;shape=mxgraph.basic.rect;top=1;topLeftStyle=rounded;topRightStyle=rounded;rotation=0;fillColor=#FFA700;align=right;" parent="dlfoiRqMnFKDiQGNqVCU-19" vertex="1">
                    <mxGeometry width="140" height="30" as="geometry"/>
                </mxCell>
                <mxCell id="dlfoiRqMnFKDiQGNqVCU-21" value="&lt;div align=&quot;left&quot;&gt;&lt;b&gt;PrevHash&lt;/b&gt;:&lt;b&gt;&lt;/b&gt;&amp;nbsp; &lt;b&gt;&lt;/b&gt;F7R3U&lt;b&gt;&lt;br&gt;&lt;/b&gt;&lt;b&gt;&lt;/b&gt;&lt;/div&gt;" style="rounded=0;whiteSpace=wrap;html=1;shadow=0;rotation=0;fillColor=#F9F7ED;align=left;" parent="dlfoiRqMnFKDiQGNqVCU-19" vertex="1">
                    <mxGeometry y="30" width="140" height="30" as="geometry"/>
                </mxCell>
                <mxCell id="dlfoiRqMnFKDiQGNqVCU-22" value="" style="rounded=0;whiteSpace=wrap;html=1;fillColor=#eeeeee;strokeColor=#36393d;shadow=0;" parent="dlfoiRqMnFKDiQGNqVCU-19" vertex="1">
                    <mxGeometry y="60" width="140" height="60" as="geometry"/>
                </mxCell>
                <mxCell id="dlfoiRqMnFKDiQGNqVCU-23" value="" style="rounded=0;whiteSpace=wrap;html=1;connectable=0;recursiveResize=0;expand=0;fillColor=#ffff88;strokeColor=#36393d;shadow=1;" parent="dlfoiRqMnFKDiQGNqVCU-19" vertex="1">
                    <mxGeometry x="5" y="64" width="20" height="15" as="geometry"/>
                </mxCell>
                <mxCell id="dlfoiRqMnFKDiQGNqVCU-24" value="&lt;font size=&quot;1&quot;&gt;&lt;b style=&quot;font-size: 15px;&quot;&gt;4&lt;/b&gt;&lt;/font&gt;" style="ellipse;whiteSpace=wrap;html=1;aspect=fixed;rounded=0;shadow=1;glass=0;comic=1;sketch=0;jiggle=1;strokeWidth=2;" parent="dlfoiRqMnFKDiQGNqVCU-19" vertex="1">
                    <mxGeometry x="6" y="2.75" width="22.5" height="22.5" as="geometry"/>
                </mxCell>
                <mxCell id="dlfoiRqMnFKDiQGNqVCU-32" value="" style="rounded=0;whiteSpace=wrap;html=1;connectable=0;recursiveResize=0;expand=0;fillColor=#ffff88;strokeColor=#36393d;shadow=1;" parent="dlfoiRqMnFKDiQGNqVCU-19" vertex="1">
                    <mxGeometry x="91" y="64" width="20" height="15" as="geometry"/>
                </mxCell>
                <mxCell id="dlfoiRqMnFKDiQGNqVCU-25" value="" style="rounded=0;whiteSpace=wrap;html=1;connectable=0;recursiveResize=0;expand=0;fillColor=#ffff88;strokeColor=#36393d;shadow=1;" parent="dlfoiRqMnFKDiQGNqVCU-16" vertex="1">
                    <mxGeometry x="15" y="74" width="20" height="15" as="geometry"/>
                </mxCell>
                <mxCell id="dlfoiRqMnFKDiQGNqVCU-26" value="" style="rounded=0;whiteSpace=wrap;html=1;connectable=0;recursiveResize=0;expand=0;fillColor=#ffff88;strokeColor=#36393d;shadow=1;" parent="dlfoiRqMnFKDiQGNqVCU-16" vertex="1">
                    <mxGeometry x="25" y="84" width="20" height="15" as="geometry"/>
                </mxCell>
                <mxCell id="dlfoiRqMnFKDiQGNqVCU-27" value="" style="rounded=0;whiteSpace=wrap;html=1;connectable=0;recursiveResize=0;expand=0;fillColor=#ffff88;strokeColor=#36393d;shadow=1;" parent="dlfoiRqMnFKDiQGNqVCU-16" vertex="1">
                    <mxGeometry x="35" y="94" width="20" height="15" as="geometry"/>
                </mxCell>
                <mxCell id="dlfoiRqMnFKDiQGNqVCU-28" value="" style="rounded=0;whiteSpace=wrap;html=1;connectable=0;recursiveResize=0;expand=0;fillColor=#ffff88;strokeColor=#36393d;shadow=1;" parent="dlfoiRqMnFKDiQGNqVCU-16" vertex="1">
                    <mxGeometry x="45" y="64" width="20" height="15" as="geometry"/>
                </mxCell>
                <mxCell id="dlfoiRqMnFKDiQGNqVCU-29" value="" style="rounded=0;whiteSpace=wrap;html=1;connectable=0;recursiveResize=0;expand=0;fillColor=#ffff88;strokeColor=#36393d;shadow=1;" parent="dlfoiRqMnFKDiQGNqVCU-16" vertex="1">
                    <mxGeometry x="55" y="74" width="20" height="15" as="geometry"/>
                </mxCell>
                <mxCell id="dlfoiRqMnFKDiQGNqVCU-30" value="" style="rounded=0;whiteSpace=wrap;html=1;connectable=0;recursiveResize=0;expand=0;fillColor=#ffff88;strokeColor=#36393d;shadow=1;" parent="dlfoiRqMnFKDiQGNqVCU-33" vertex="1">
                    <mxGeometry x="65" y="84" width="20" height="15" as="geometry"/>
                </mxCell>
                <mxCell id="dlfoiRqMnFKDiQGNqVCU-31" value="" style="rounded=0;whiteSpace=wrap;html=1;connectable=0;recursiveResize=0;expand=0;fillColor=#ffff88;strokeColor=#36393d;shadow=1;" parent="dlfoiRqMnFKDiQGNqVCU-33" vertex="1">
                    <mxGeometry x="75" y="94" width="20" height="15" as="geometry"/>
                </mxCell>
                <mxCell id="Gfbxat_Uo33sC0G4bh7W-1" value="" style="group;fillColor=default;shadow=1;shape=mxgraph.basic.rect;topLeftStyle=rounded;topRightStyle=rounded;" parent="1" vertex="1" connectable="0">
                    <mxGeometry x="-140" y="132.5" width="140" height="120" as="geometry"/>
                </mxCell>
                <mxCell id="Gfbxat_Uo33sC0G4bh7W-2" value="&lt;div align=&quot;right&quot;&gt;&lt;b&gt;62H2DF&amp;nbsp; &lt;br&gt;&lt;/b&gt;&lt;/div&gt;" style="rounded=1;whiteSpace=wrap;html=1;shadow=0;shape=mxgraph.basic.rect;top=1;topLeftStyle=rounded;topRightStyle=rounded;rotation=0;fillColor=#FFA700;align=right;" parent="Gfbxat_Uo33sC0G4bh7W-1" vertex="1">
                    <mxGeometry width="140" height="30" as="geometry"/>
                </mxCell>
                <mxCell id="Gfbxat_Uo33sC0G4bh7W-3" value="&lt;div align=&quot;left&quot;&gt;&lt;b&gt;PrevHash&lt;/b&gt;:&lt;/div&gt;" style="rounded=0;whiteSpace=wrap;html=1;shadow=0;rotation=0;fillColor=#F9F7ED;align=left;" parent="Gfbxat_Uo33sC0G4bh7W-1" vertex="1">
                    <mxGeometry y="30" width="140" height="30" as="geometry"/>
                </mxCell>
                <mxCell id="Gfbxat_Uo33sC0G4bh7W-4" value="" style="rounded=0;whiteSpace=wrap;html=1;fillColor=#eeeeee;strokeColor=#36393d;shadow=0;" parent="Gfbxat_Uo33sC0G4bh7W-1" vertex="1">
                    <mxGeometry y="60" width="140" height="60" as="geometry"/>
                </mxCell>
                <mxCell id="Gfbxat_Uo33sC0G4bh7W-5" value="" style="rounded=0;whiteSpace=wrap;html=1;connectable=0;recursiveResize=0;expand=0;fillColor=#ffff88;strokeColor=#36393d;shadow=1;" parent="Gfbxat_Uo33sC0G4bh7W-1" vertex="1">
                    <mxGeometry x="5" y="64" width="20" height="15" as="geometry"/>
                </mxCell>
                <mxCell id="Gfbxat_Uo33sC0G4bh7W-6" value="&lt;b&gt;&lt;font style=&quot;font-size: 15px;&quot;&gt;1&lt;/font&gt;&lt;/b&gt;" style="ellipse;whiteSpace=wrap;html=1;aspect=fixed;rounded=0;shadow=1;glass=0;comic=1;sketch=0;jiggle=1;strokeWidth=2;" parent="Gfbxat_Uo33sC0G4bh7W-1" vertex="1">
                    <mxGeometry x="6" y="2.75" width="22.5" height="22.5" as="geometry"/>
                </mxCell>
                <mxCell id="dlfoiRqMnFKDiQGNqVCU-35" value="" style="group" parent="1" vertex="1" connectable="0">
                    <mxGeometry x="319" y="-23" width="140" height="120" as="geometry"/>
                </mxCell>
                <mxCell id="dlfoiRqMnFKDiQGNqVCU-36" value="" style="group" parent="dlfoiRqMnFKDiQGNqVCU-35" vertex="1" connectable="0">
                    <mxGeometry width="140" height="120" as="geometry"/>
                </mxCell>
                <mxCell id="dlfoiRqMnFKDiQGNqVCU-37" value="" style="rounded=0;whiteSpace=wrap;html=1;shadow=1;fillColor=default;rotation=0;shape=mxgraph.basic.rect;topLeftStyle=rounded;topRightStyle=rounded;" parent="dlfoiRqMnFKDiQGNqVCU-36" vertex="1">
                    <mxGeometry width="140" height="120" as="geometry"/>
                </mxCell>
                <mxCell id="dlfoiRqMnFKDiQGNqVCU-38" value="" style="group" parent="dlfoiRqMnFKDiQGNqVCU-36" vertex="1" connectable="0">
                    <mxGeometry width="140" height="120" as="geometry"/>
                </mxCell>
                <mxCell id="dlfoiRqMnFKDiQGNqVCU-39" value="&lt;div align=&quot;right&quot;&gt;&lt;b&gt;&amp;nbsp;T563E&amp;nbsp; &lt;br&gt;&lt;/b&gt;&lt;/div&gt;" style="rounded=1;whiteSpace=wrap;html=1;shadow=0;shape=mxgraph.basic.rect;top=1;topLeftStyle=rounded;topRightStyle=rounded;rotation=0;fillColor=#C48100;align=right;" parent="dlfoiRqMnFKDiQGNqVCU-38" vertex="1">
                    <mxGeometry width="140" height="30" as="geometry"/>
                </mxCell>
                <mxCell id="dlfoiRqMnFKDiQGNqVCU-40" value="&lt;div align=&quot;left&quot;&gt;&lt;b&gt;PrevHash&lt;/b&gt;:&lt;b&gt;&lt;/b&gt;&amp;nbsp; 3GH67&lt;b&gt;&lt;br&gt;&lt;/b&gt;&lt;/div&gt;" style="rounded=0;whiteSpace=wrap;html=1;shadow=0;rotation=0;fillColor=#CFCDC5;align=left;" parent="dlfoiRqMnFKDiQGNqVCU-38" vertex="1">
                    <mxGeometry y="30" width="140" height="30" as="geometry"/>
                </mxCell>
                <mxCell id="dlfoiRqMnFKDiQGNqVCU-41" value="" style="rounded=0;whiteSpace=wrap;html=1;fillColor=#B5B5B5;strokeColor=#36393d;shadow=0;" parent="dlfoiRqMnFKDiQGNqVCU-38" vertex="1">
                    <mxGeometry y="60" width="140" height="60" as="geometry"/>
                </mxCell>
                <mxCell id="dlfoiRqMnFKDiQGNqVCU-42" value="" style="rounded=0;whiteSpace=wrap;html=1;connectable=0;recursiveResize=0;expand=0;fillColor=#B3B35F;strokeColor=#36393d;shadow=1;" parent="dlfoiRqMnFKDiQGNqVCU-38" vertex="1">
                    <mxGeometry x="5" y="64" width="20" height="15" as="geometry"/>
                </mxCell>
                <mxCell id="dlfoiRqMnFKDiQGNqVCU-43" value="&lt;font size=&quot;1&quot;&gt;&lt;b style=&quot;font-size: 15px;&quot;&gt;3'&lt;/b&gt;&lt;/font&gt;" style="ellipse;whiteSpace=wrap;html=1;aspect=fixed;rounded=0;shadow=1;glass=0;comic=1;sketch=0;jiggle=1;strokeWidth=2;" parent="dlfoiRqMnFKDiQGNqVCU-38" vertex="1">
                    <mxGeometry x="6" y="2.75" width="22.5" height="22.5" as="geometry"/>
                </mxCell>
                <mxCell id="dlfoiRqMnFKDiQGNqVCU-44" value="" style="rounded=0;whiteSpace=wrap;html=1;connectable=0;recursiveResize=0;expand=0;fillColor=#B3B35F;strokeColor=#36393d;shadow=1;" parent="dlfoiRqMnFKDiQGNqVCU-35" vertex="1">
                    <mxGeometry x="15" y="74" width="20" height="15" as="geometry"/>
                </mxCell>
                <mxCell id="dlfoiRqMnFKDiQGNqVCU-45" value="" style="rounded=0;whiteSpace=wrap;html=1;connectable=0;recursiveResize=0;expand=0;fillColor=#B3B35F;strokeColor=#36393d;shadow=1;" parent="dlfoiRqMnFKDiQGNqVCU-35" vertex="1">
                    <mxGeometry x="25" y="84" width="20" height="15" as="geometry"/>
                </mxCell>
                <mxCell id="dlfoiRqMnFKDiQGNqVCU-46" value="" style="rounded=0;whiteSpace=wrap;html=1;connectable=0;recursiveResize=0;expand=0;fillColor=#B3B35F;strokeColor=#36393d;shadow=1;" parent="dlfoiRqMnFKDiQGNqVCU-35" vertex="1">
                    <mxGeometry x="35" y="94" width="20" height="15" as="geometry"/>
                </mxCell>
                <mxCell id="dlfoiRqMnFKDiQGNqVCU-47" value="" style="rounded=0;whiteSpace=wrap;html=1;connectable=0;recursiveResize=0;expand=0;fillColor=#B3B35F;strokeColor=#36393d;shadow=1;" parent="dlfoiRqMnFKDiQGNqVCU-35" vertex="1">
                    <mxGeometry x="45" y="64" width="20" height="15" as="geometry"/>
                </mxCell>
                <mxCell id="48I8_NyLfqp9bhXNqJOy-51" value="&amp;nbsp;" style="group" parent="1" vertex="1" connectable="0">
                    <mxGeometry x="190" y="302" width="192" height="182" as="geometry"/>
                </mxCell>
                <mxCell id="48I8_NyLfqp9bhXNqJOy-1" value="" style="group;fillColor=#FFFFFF;shape=mxgraph.basic.rect;topLeftStyle=rounded;topRightStyle=rounded;" parent="48I8_NyLfqp9bhXNqJOy-51" vertex="1" connectable="0">
                    <mxGeometry width="140" height="120" as="geometry"/>
                </mxCell>
                <mxCell id="48I8_NyLfqp9bhXNqJOy-2" value="" style="rounded=0;whiteSpace=wrap;html=1;shadow=1;fillColor=default;rotation=0;shape=mxgraph.basic.rect;topLeftStyle=rounded;topRightStyle=rounded;" parent="48I8_NyLfqp9bhXNqJOy-1" vertex="1">
                    <mxGeometry width="140" height="120" as="geometry"/>
                </mxCell>
                <mxCell id="48I8_NyLfqp9bhXNqJOy-3" value="" style="group" parent="48I8_NyLfqp9bhXNqJOy-1" vertex="1" connectable="0">
                    <mxGeometry width="140" height="120" as="geometry"/>
                </mxCell>
                <mxCell id="48I8_NyLfqp9bhXNqJOy-4" value="&lt;div align=&quot;center&quot;&gt;&lt;b&gt;Transaction id: #1&lt;/b&gt;&lt;/div&gt;" style="rounded=1;whiteSpace=wrap;html=1;shadow=0;shape=mxgraph.basic.rect;top=1;topLeftStyle=rounded;topRightStyle=rounded;rotation=0;fillColor=#FFCC99;align=center;" parent="48I8_NyLfqp9bhXNqJOy-3" vertex="1">
                    <mxGeometry width="140" height="30" as="geometry"/>
                </mxCell>
                <mxCell id="48I8_NyLfqp9bhXNqJOy-5" value="&amp;nbsp;From: 0x243223" style="rounded=0;whiteSpace=wrap;html=1;shadow=0;rotation=0;fillColor=#FFFFFF;align=left;" parent="48I8_NyLfqp9bhXNqJOy-3" vertex="1">
                    <mxGeometry y="30" width="140" height="30" as="geometry"/>
                </mxCell>
                <mxCell id="48I8_NyLfqp9bhXNqJOy-6" value="&amp;nbsp;To: 0xer343df" style="rounded=0;whiteSpace=wrap;html=1;shadow=0;rotation=0;fillColor=#FFFFFF;align=left;" parent="48I8_NyLfqp9bhXNqJOy-3" vertex="1">
                    <mxGeometry y="60" width="140" height="30" as="geometry"/>
                </mxCell>
                <mxCell id="48I8_NyLfqp9bhXNqJOy-7" value="&lt;div align=&quot;center&quot;&gt;...Transaction details...&lt;/div&gt;" style="rounded=0;whiteSpace=wrap;html=1;shadow=0;rotation=0;fillColor=#FFFFFF;align=center;" parent="48I8_NyLfqp9bhXNqJOy-1" vertex="1">
                    <mxGeometry y="90" width="140" height="30" as="geometry"/>
                </mxCell>
                <mxCell id="48I8_NyLfqp9bhXNqJOy-36" value="" style="group;fillColor=#FFFFFF;shape=mxgraph.basic.rect;topLeftStyle=rounded;topRightStyle=rounded;" parent="48I8_NyLfqp9bhXNqJOy-51" vertex="1" connectable="0">
                    <mxGeometry x="26" y="31" width="140" height="120" as="geometry"/>
                </mxCell>
                <mxCell id="48I8_NyLfqp9bhXNqJOy-37" value="" style="rounded=0;whiteSpace=wrap;html=1;shadow=1;fillColor=default;rotation=0;shape=mxgraph.basic.rect;topLeftStyle=rounded;topRightStyle=rounded;" parent="48I8_NyLfqp9bhXNqJOy-36" vertex="1">
                    <mxGeometry width="140" height="120" as="geometry"/>
                </mxCell>
                <mxCell id="48I8_NyLfqp9bhXNqJOy-38" value="" style="group" parent="48I8_NyLfqp9bhXNqJOy-36" vertex="1" connectable="0">
                    <mxGeometry width="140" height="120" as="geometry"/>
                </mxCell>
                <mxCell id="48I8_NyLfqp9bhXNqJOy-39" value="&lt;div align=&quot;center&quot;&gt;&lt;b&gt;Transaction id: #2&lt;/b&gt;&lt;/div&gt;" style="rounded=1;whiteSpace=wrap;html=1;shadow=0;shape=mxgraph.basic.rect;top=1;topLeftStyle=rounded;topRightStyle=rounded;rotation=0;fillColor=#FFCC99;align=center;" parent="48I8_NyLfqp9bhXNqJOy-38" vertex="1">
                    <mxGeometry width="140" height="30" as="geometry"/>
                </mxCell>
                <mxCell id="48I8_NyLfqp9bhXNqJOy-40" value="&amp;nbsp;From: 0x243223" style="rounded=0;whiteSpace=wrap;html=1;shadow=0;rotation=0;fillColor=#FFFFFF;align=left;" parent="48I8_NyLfqp9bhXNqJOy-38" vertex="1">
                    <mxGeometry y="30" width="140" height="30" as="geometry"/>
                </mxCell>
                <mxCell id="48I8_NyLfqp9bhXNqJOy-41" value="&amp;nbsp;To: 0xer343df" style="rounded=0;whiteSpace=wrap;html=1;shadow=0;rotation=0;fillColor=#FFFFFF;align=left;" parent="48I8_NyLfqp9bhXNqJOy-38" vertex="1">
                    <mxGeometry y="60" width="140" height="30" as="geometry"/>
                </mxCell>
                <mxCell id="48I8_NyLfqp9bhXNqJOy-42" value="&lt;div align=&quot;center&quot;&gt;...Transaction details...&lt;/div&gt;" style="rounded=0;whiteSpace=wrap;html=1;shadow=0;rotation=0;fillColor=#FFFFFF;align=center;" parent="48I8_NyLfqp9bhXNqJOy-36" vertex="1">
                    <mxGeometry y="90" width="140" height="30" as="geometry"/>
                </mxCell>
                <mxCell id="48I8_NyLfqp9bhXNqJOy-43" value="" style="group;fillColor=#FFFFFF;shape=mxgraph.basic.rect;topLeftStyle=rounded;topRightStyle=rounded;" parent="48I8_NyLfqp9bhXNqJOy-51" vertex="1" connectable="0">
                    <mxGeometry x="52" y="62" width="140" height="120" as="geometry"/>
                </mxCell>
                <mxCell id="48I8_NyLfqp9bhXNqJOy-44" value="" style="rounded=0;whiteSpace=wrap;html=1;shadow=1;fillColor=default;rotation=0;shape=mxgraph.basic.rect;topLeftStyle=rounded;topRightStyle=rounded;" parent="48I8_NyLfqp9bhXNqJOy-43" vertex="1">
                    <mxGeometry width="140" height="120" as="geometry"/>
                </mxCell>
                <mxCell id="48I8_NyLfqp9bhXNqJOy-45" value="" style="group" parent="48I8_NyLfqp9bhXNqJOy-43" vertex="1" connectable="0">
                    <mxGeometry width="140" height="120" as="geometry"/>
                </mxCell>
                <mxCell id="48I8_NyLfqp9bhXNqJOy-46" value="&lt;div align=&quot;center&quot;&gt;&lt;b&gt;Transaction id: #3&lt;/b&gt;&lt;/div&gt;" style="rounded=1;whiteSpace=wrap;html=1;shadow=0;shape=mxgraph.basic.rect;top=1;topLeftStyle=rounded;topRightStyle=rounded;rotation=0;fillColor=#FFCC99;align=center;" parent="48I8_NyLfqp9bhXNqJOy-45" vertex="1">
                    <mxGeometry width="140" height="30" as="geometry"/>
                </mxCell>
                <mxCell id="48I8_NyLfqp9bhXNqJOy-47" value="&amp;nbsp;From: 0x243223" style="rounded=0;whiteSpace=wrap;html=1;shadow=0;rotation=0;fillColor=#FFFFFF;align=left;" parent="48I8_NyLfqp9bhXNqJOy-45" vertex="1">
                    <mxGeometry y="30" width="140" height="30" as="geometry"/>
                </mxCell>
                <mxCell id="48I8_NyLfqp9bhXNqJOy-48" value="&amp;nbsp;To: 0xer343df" style="rounded=0;whiteSpace=wrap;html=1;shadow=0;rotation=0;fillColor=#FFFFFF;align=left;" parent="48I8_NyLfqp9bhXNqJOy-45" vertex="1">
                    <mxGeometry y="60" width="140" height="30" as="geometry"/>
                </mxCell>
                <mxCell id="48I8_NyLfqp9bhXNqJOy-49" value="&lt;div align=&quot;center&quot;&gt;...Transaction details...&lt;/div&gt;" style="rounded=0;whiteSpace=wrap;html=1;shadow=0;rotation=0;fillColor=#FFFFFF;align=center;" parent="48I8_NyLfqp9bhXNqJOy-43" vertex="1">
                    <mxGeometry y="90" width="140" height="30" as="geometry"/>
                </mxCell>
            </root>
        </mxGraphModel>
    </diagram>
    <diagram id="GuUx2NNdRMGoT-oOfy1W" name="trilema">
        <mxGraphModel dx="722" dy="411" grid="1" gridSize="10" guides="1" tooltips="1" connect="1" arrows="1" fold="1" page="1" pageScale="1" pageWidth="827" pageHeight="1169" math="0" shadow="0">
            <root>
                <mxCell id="0"/>
                <mxCell id="1" parent="0"/>
                <mxCell id="4GxJ594wnsGejHXvf8gw-3" value="" style="triangle;whiteSpace=wrap;html=1;rotation=-90;strokeWidth=4;strokeColor=#999999;" parent="1" vertex="1">
                    <mxGeometry x="250" y="165.5" width="205" height="276" as="geometry"/>
                </mxCell>
                <mxCell id="4GxJ594wnsGejHXvf8gw-1" value="" style="ellipse;whiteSpace=wrap;html=1;aspect=fixed;fillColor=#994C00;strokeColor=none;strokeWidth=4;fontColor=#000000;" parent="1" vertex="1">
                    <mxGeometry x="327.5" y="180" width="50" height="50" as="geometry"/>
                </mxCell>
                <mxCell id="4GxJ594wnsGejHXvf8gw-2" value="" style="ellipse;whiteSpace=wrap;html=1;aspect=fixed;fillColor=#EBBC8D;strokeColor=none;strokeWidth=5;" parent="1" vertex="1">
                    <mxGeometry x="190" y="380" width="50" height="50" as="geometry"/>
                </mxCell>
                <mxCell id="4GxJ594wnsGejHXvf8gw-4" value="" style="ellipse;whiteSpace=wrap;html=1;aspect=fixed;fillColor=#FF9D00;fontColor=#ffffff;strokeColor=none;strokeWidth=5;" parent="1" vertex="1">
                    <mxGeometry x="460" y="380" width="50" height="50" as="geometry"/>
                </mxCell>
                <mxCell id="4GxJ594wnsGejHXvf8gw-5" value="&lt;b&gt;&lt;font style=&quot;font-size: 14px;&quot;&gt;Descentralization&lt;/font&gt;&lt;/b&gt;" style="text;html=1;strokeColor=none;fillColor=none;align=center;verticalAlign=middle;whiteSpace=wrap;rounded=0;" parent="1" vertex="1">
                    <mxGeometry x="322.5" y="150" width="60" height="30" as="geometry"/>
                </mxCell>
                <mxCell id="4GxJ594wnsGejHXvf8gw-6" value="&lt;b&gt;&lt;font style=&quot;font-size: 14px;&quot;&gt;Scalability&lt;/font&gt;&lt;/b&gt;" style="text;html=1;strokeColor=none;fillColor=none;align=center;verticalAlign=middle;whiteSpace=wrap;rounded=0;" parent="1" vertex="1">
                    <mxGeometry x="119" y="390" width="60" height="30" as="geometry"/>
                </mxCell>
                <mxCell id="4GxJ594wnsGejHXvf8gw-7" value="&lt;b&gt;&lt;font style=&quot;font-size: 14px;&quot;&gt;Security&lt;/font&gt;&lt;/b&gt;" style="text;html=1;strokeColor=none;fillColor=none;align=center;verticalAlign=middle;whiteSpace=wrap;rounded=0;" parent="1" vertex="1">
                    <mxGeometry x="520" y="390" width="60" height="30" as="geometry"/>
                </mxCell>
            </root>
        </mxGraphModel>
    </diagram>
    <diagram id="07qAt_zfpjGCUvmefsWm" name="distributed-network">
        <mxGraphModel dx="849" dy="484" grid="1" gridSize="10" guides="1" tooltips="1" connect="1" arrows="1" fold="1" page="1" pageScale="1" pageWidth="827" pageHeight="1169" math="0" shadow="0">
            <root>
                <mxCell id="0"/>
                <mxCell id="1" parent="0"/>
                <mxCell id="1W6G8PqIG_CB1-VnXwp_-1" value="" style="group;" parent="1" vertex="1" connectable="0">
                    <mxGeometry x="60" y="180" width="640" height="290" as="geometry"/>
                </mxCell>
                <mxCell id="yqUEAwRRpuF5AUpTHALv-1" value="" style="ellipse;whiteSpace=wrap;html=1;aspect=fixed;fillColor=#994C00;strokeColor=none;strokeWidth=4;fontColor=#000000;shadow=1;" parent="1W6G8PqIG_CB1-VnXwp_-1" vertex="1">
                    <mxGeometry x="196.9230769230769" y="6.041666666666666" width="30.20833333333333" height="30.20833333333333" as="geometry"/>
                </mxCell>
                <mxCell id="fICSuEFrbXyW4dKdM_m4-1" value="" style="ellipse;whiteSpace=wrap;html=1;aspect=fixed;fillColor=#EBBC8D;strokeColor=none;strokeWidth=5;shadow=1;" parent="1W6G8PqIG_CB1-VnXwp_-1" vertex="1">
                    <mxGeometry x="196.9230769230769" y="78.54166666666666" width="30.20833333333333" height="30.20833333333333" as="geometry"/>
                </mxCell>
                <mxCell id="snrR_tLXZ6fpuTXq6NrR-53" style="edgeStyle=none;rounded=0;sketch=0;orthogonalLoop=1;jettySize=auto;html=1;exitX=0.5;exitY=1;exitDx=0;exitDy=0;entryX=0.5;entryY=0;entryDx=0;entryDy=0;shadow=1;strokeWidth=3;endArrow=none;endFill=0;endSize=6;targetPerimeterSpacing=0;" parent="1W6G8PqIG_CB1-VnXwp_-1" source="yqUEAwRRpuF5AUpTHALv-1" target="fICSuEFrbXyW4dKdM_m4-1" edge="1">
                    <mxGeometry relative="1" as="geometry"/>
                </mxCell>
                <mxCell id="snrR_tLXZ6fpuTXq6NrR-1" value="" style="ellipse;whiteSpace=wrap;html=1;aspect=fixed;fillColor=#FF9D00;fontColor=#ffffff;strokeColor=none;strokeWidth=5;shadow=1;" parent="1W6G8PqIG_CB1-VnXwp_-1" vertex="1">
                    <mxGeometry x="139.48717948717947" y="157.08333333333331" width="30.20833333333333" height="30.20833333333333" as="geometry"/>
                </mxCell>
                <mxCell id="snrR_tLXZ6fpuTXq6NrR-2" value="" style="ellipse;whiteSpace=wrap;html=1;aspect=fixed;fillColor=#733900;strokeColor=none;strokeWidth=4;fontColor=#000000;shadow=1;" parent="1W6G8PqIG_CB1-VnXwp_-1" vertex="1">
                    <mxGeometry x="598.974358974359" width="30.20833333333333" height="30.20833333333333" as="geometry"/>
                </mxCell>
                <mxCell id="snrR_tLXZ6fpuTXq6NrR-32" style="edgeStyle=none;rounded=0;orthogonalLoop=1;jettySize=auto;html=1;exitX=1;exitY=0;exitDx=0;exitDy=0;entryX=0;entryY=1;entryDx=0;entryDy=0;shadow=1;strokeWidth=3;endArrow=none;endFill=0;endSize=6;targetPerimeterSpacing=0;" parent="1W6G8PqIG_CB1-VnXwp_-1" source="snrR_tLXZ6fpuTXq6NrR-3" target="snrR_tLXZ6fpuTXq6NrR-2" edge="1">
                    <mxGeometry relative="1" as="geometry"/>
                </mxCell>
                <mxCell id="snrR_tLXZ6fpuTXq6NrR-3" value="" style="ellipse;whiteSpace=wrap;html=1;aspect=fixed;fillColor=#D68400;fontColor=#ffffff;strokeColor=none;strokeWidth=5;shadow=1;" parent="1W6G8PqIG_CB1-VnXwp_-1" vertex="1">
                    <mxGeometry x="451.2820512820512" y="114.79166666666667" width="30.20833333333333" height="30.20833333333333" as="geometry"/>
                </mxCell>
                <mxCell id="snrR_tLXZ6fpuTXq6NrR-48" style="edgeStyle=none;rounded=0;orthogonalLoop=1;jettySize=auto;html=1;exitX=1;exitY=0.5;exitDx=0;exitDy=0;entryX=0;entryY=0.5;entryDx=0;entryDy=0;shadow=1;strokeWidth=3;endArrow=none;endFill=0;endSize=6;targetPerimeterSpacing=0;" parent="1W6G8PqIG_CB1-VnXwp_-1" source="snrR_tLXZ6fpuTXq6NrR-4" target="yqUEAwRRpuF5AUpTHALv-1" edge="1">
                    <mxGeometry relative="1" as="geometry"/>
                </mxCell>
                <mxCell id="snrR_tLXZ6fpuTXq6NrR-4" value="" style="ellipse;whiteSpace=wrap;html=1;aspect=fixed;fillColor=#FFCC99;strokeColor=none;strokeWidth=5;shadow=1;" parent="1W6G8PqIG_CB1-VnXwp_-1" vertex="1">
                    <mxGeometry width="30.20833333333333" height="30.20833333333333" as="geometry"/>
                </mxCell>
                <mxCell id="snrR_tLXZ6fpuTXq6NrR-52" style="edgeStyle=none;rounded=0;sketch=0;orthogonalLoop=1;jettySize=auto;html=1;exitX=0;exitY=0;exitDx=0;exitDy=0;entryX=1;entryY=1;entryDx=0;entryDy=0;shadow=1;strokeWidth=3;endArrow=none;endFill=0;endSize=6;targetPerimeterSpacing=0;" parent="1W6G8PqIG_CB1-VnXwp_-1" source="snrR_tLXZ6fpuTXq6NrR-5" target="snrR_tLXZ6fpuTXq6NrR-1" edge="1">
                    <mxGeometry relative="1" as="geometry"/>
                </mxCell>
                <mxCell id="snrR_tLXZ6fpuTXq6NrR-5" value="" style="ellipse;whiteSpace=wrap;html=1;aspect=fixed;fillColor=#592C00;strokeColor=none;strokeWidth=4;fontColor=#000000;shadow=1;" parent="1W6G8PqIG_CB1-VnXwp_-1" vertex="1">
                    <mxGeometry x="295.38461538461536" y="244.6875" width="30.20833333333333" height="30.20833333333333" as="geometry"/>
                </mxCell>
                <mxCell id="snrR_tLXZ6fpuTXq6NrR-37" style="edgeStyle=none;rounded=0;orthogonalLoop=1;jettySize=auto;html=1;exitX=0.5;exitY=1;exitDx=0;exitDy=0;entryX=1;entryY=0;entryDx=0;entryDy=0;shadow=1;strokeWidth=3;endArrow=none;endFill=0;endSize=6;targetPerimeterSpacing=0;" parent="1W6G8PqIG_CB1-VnXwp_-1" source="snrR_tLXZ6fpuTXq6NrR-3" target="snrR_tLXZ6fpuTXq6NrR-5" edge="1">
                    <mxGeometry relative="1" as="geometry"/>
                </mxCell>
                <mxCell id="snrR_tLXZ6fpuTXq6NrR-30" style="edgeStyle=none;rounded=0;orthogonalLoop=1;jettySize=auto;html=1;exitX=1;exitY=0;exitDx=0;exitDy=0;entryX=0;entryY=1;entryDx=0;entryDy=0;shadow=1;strokeWidth=3;endArrow=none;endFill=0;endSize=6;targetPerimeterSpacing=0;" parent="1W6G8PqIG_CB1-VnXwp_-1" source="snrR_tLXZ6fpuTXq6NrR-6" target="snrR_tLXZ6fpuTXq6NrR-3" edge="1">
                    <mxGeometry relative="1" as="geometry"/>
                </mxCell>
                <mxCell id="snrR_tLXZ6fpuTXq6NrR-6" value="" style="ellipse;whiteSpace=wrap;html=1;aspect=fixed;fillColor=#A16300;fontColor=#ffffff;strokeColor=none;strokeWidth=5;shadow=1;" parent="1W6G8PqIG_CB1-VnXwp_-1" vertex="1">
                    <mxGeometry x="295.38461538461536" y="157.08333333333331" width="30.20833333333333" height="30.20833333333333" as="geometry"/>
                </mxCell>
                <mxCell id="snrR_tLXZ6fpuTXq6NrR-23" style="edgeStyle=none;rounded=0;orthogonalLoop=1;jettySize=auto;html=1;exitX=1;exitY=1;exitDx=0;exitDy=0;entryX=0;entryY=0;entryDx=0;entryDy=0;shadow=1;strokeWidth=3;endArrow=none;endFill=0;endSize=6;targetPerimeterSpacing=0;" parent="1W6G8PqIG_CB1-VnXwp_-1" source="fICSuEFrbXyW4dKdM_m4-1" target="snrR_tLXZ6fpuTXq6NrR-6" edge="1">
                    <mxGeometry relative="1" as="geometry"/>
                </mxCell>
                <mxCell id="snrR_tLXZ6fpuTXq6NrR-25" style="edgeStyle=none;rounded=0;orthogonalLoop=1;jettySize=auto;html=1;exitX=1;exitY=0.5;exitDx=0;exitDy=0;shadow=1;strokeWidth=3;endArrow=none;endFill=0;endSize=6;targetPerimeterSpacing=0;" parent="1W6G8PqIG_CB1-VnXwp_-1" source="snrR_tLXZ6fpuTXq6NrR-1" target="snrR_tLXZ6fpuTXq6NrR-6" edge="1">
                    <mxGeometry relative="1" as="geometry"/>
                </mxCell>
                <mxCell id="snrR_tLXZ6fpuTXq6NrR-51" style="edgeStyle=none;rounded=0;sketch=0;orthogonalLoop=1;jettySize=auto;html=1;exitX=0.5;exitY=0;exitDx=0;exitDy=0;entryX=0.5;entryY=1;entryDx=0;entryDy=0;shadow=1;strokeWidth=3;endArrow=none;endFill=0;endSize=6;targetPerimeterSpacing=0;" parent="1W6G8PqIG_CB1-VnXwp_-1" source="snrR_tLXZ6fpuTXq6NrR-5" target="snrR_tLXZ6fpuTXq6NrR-6" edge="1">
                    <mxGeometry relative="1" as="geometry"/>
                </mxCell>
                <mxCell id="snrR_tLXZ6fpuTXq6NrR-42" style="edgeStyle=none;rounded=0;orthogonalLoop=1;jettySize=auto;html=1;exitX=0;exitY=0.5;exitDx=0;exitDy=0;entryX=1;entryY=0.5;entryDx=0;entryDy=0;shadow=1;strokeWidth=3;endArrow=none;endFill=0;endSize=6;targetPerimeterSpacing=0;" parent="1W6G8PqIG_CB1-VnXwp_-1" source="snrR_tLXZ6fpuTXq6NrR-7" target="snrR_tLXZ6fpuTXq6NrR-3" edge="1">
                    <mxGeometry relative="1" as="geometry"/>
                </mxCell>
                <mxCell id="snrR_tLXZ6fpuTXq6NrR-7" value="" style="ellipse;whiteSpace=wrap;html=1;aspect=fixed;fillColor=#CCA37A;strokeColor=none;strokeWidth=5;shadow=1;" parent="1W6G8PqIG_CB1-VnXwp_-1" vertex="1">
                    <mxGeometry x="557.9487179487179" y="114.79166666666667" width="30.20833333333333" height="30.20833333333333" as="geometry"/>
                </mxCell>
                <mxCell id="snrR_tLXZ6fpuTXq6NrR-41" style="edgeStyle=none;rounded=0;orthogonalLoop=1;jettySize=auto;html=1;exitX=0.5;exitY=1;exitDx=0;exitDy=0;entryX=0.5;entryY=0;entryDx=0;entryDy=0;shadow=1;strokeWidth=3;endArrow=none;endFill=0;endSize=6;targetPerimeterSpacing=0;" parent="1W6G8PqIG_CB1-VnXwp_-1" source="snrR_tLXZ6fpuTXq6NrR-2" target="snrR_tLXZ6fpuTXq6NrR-7" edge="1">
                    <mxGeometry relative="1" as="geometry"/>
                </mxCell>
                <mxCell id="snrR_tLXZ6fpuTXq6NrR-31" style="edgeStyle=none;rounded=0;orthogonalLoop=1;jettySize=auto;html=1;exitX=1;exitY=1;exitDx=0;exitDy=0;shadow=1;strokeWidth=3;endArrow=none;endFill=0;endSize=6;targetPerimeterSpacing=0;" parent="1W6G8PqIG_CB1-VnXwp_-1" source="snrR_tLXZ6fpuTXq6NrR-8" target="snrR_tLXZ6fpuTXq6NrR-3" edge="1">
                    <mxGeometry relative="1" as="geometry"/>
                </mxCell>
                <mxCell id="snrR_tLXZ6fpuTXq6NrR-36" style="edgeStyle=none;rounded=0;orthogonalLoop=1;jettySize=auto;html=1;exitX=1;exitY=0.5;exitDx=0;exitDy=0;entryX=0;entryY=0.5;entryDx=0;entryDy=0;shadow=1;strokeWidth=3;endArrow=none;endFill=0;endSize=6;targetPerimeterSpacing=0;" parent="1W6G8PqIG_CB1-VnXwp_-1" source="snrR_tLXZ6fpuTXq6NrR-8" target="snrR_tLXZ6fpuTXq6NrR-2" edge="1">
                    <mxGeometry relative="1" as="geometry"/>
                </mxCell>
                <mxCell id="snrR_tLXZ6fpuTXq6NrR-8" value="" style="ellipse;whiteSpace=wrap;html=1;aspect=fixed;fillColor=#FF7F00;strokeColor=none;strokeWidth=4;fontColor=#000000;shadow=1;" parent="1W6G8PqIG_CB1-VnXwp_-1" vertex="1">
                    <mxGeometry x="336.41025641025635" y="6.041666666666666" width="30.20833333333333" height="30.20833333333333" as="geometry"/>
                </mxCell>
                <mxCell id="snrR_tLXZ6fpuTXq6NrR-49" style="edgeStyle=none;rounded=0;sketch=0;orthogonalLoop=1;jettySize=auto;html=1;exitX=1;exitY=0.5;exitDx=0;exitDy=0;entryX=0;entryY=0.5;entryDx=0;entryDy=0;shadow=1;strokeWidth=3;endArrow=none;endFill=0;endSize=6;targetPerimeterSpacing=0;" parent="1W6G8PqIG_CB1-VnXwp_-1" source="yqUEAwRRpuF5AUpTHALv-1" target="snrR_tLXZ6fpuTXq6NrR-8" edge="1">
                    <mxGeometry relative="1" as="geometry"/>
                </mxCell>
                <mxCell id="snrR_tLXZ6fpuTXq6NrR-19" style="edgeStyle=none;rounded=0;orthogonalLoop=1;jettySize=auto;html=1;exitX=1;exitY=0;exitDx=0;exitDy=0;entryX=0;entryY=1;entryDx=0;entryDy=0;shadow=1;strokeWidth=3;endArrow=none;endFill=0;endSize=6;targetPerimeterSpacing=0;" parent="1W6G8PqIG_CB1-VnXwp_-1" source="fICSuEFrbXyW4dKdM_m4-1" target="snrR_tLXZ6fpuTXq6NrR-8" edge="1">
                    <mxGeometry relative="1" as="geometry"/>
                </mxCell>
                <mxCell id="snrR_tLXZ6fpuTXq6NrR-18" style="edgeStyle=none;rounded=0;orthogonalLoop=1;jettySize=auto;html=1;exitX=1;exitY=0.5;exitDx=0;exitDy=0;entryX=0;entryY=0.5;entryDx=0;entryDy=0;shadow=1;strokeWidth=3;endArrow=none;endFill=0;endSize=6;targetPerimeterSpacing=0;" parent="1W6G8PqIG_CB1-VnXwp_-1" source="snrR_tLXZ6fpuTXq6NrR-9" target="fICSuEFrbXyW4dKdM_m4-1" edge="1">
                    <mxGeometry relative="1" as="geometry"/>
                </mxCell>
                <mxCell id="snrR_tLXZ6fpuTXq6NrR-9" value="" style="ellipse;whiteSpace=wrap;html=1;aspect=fixed;fillColor=#C77900;fontColor=#ffffff;strokeColor=none;strokeWidth=5;shadow=1;" parent="1W6G8PqIG_CB1-VnXwp_-1" vertex="1">
                    <mxGeometry x="32.82051282051282" y="96.66666666666666" width="30.20833333333333" height="30.20833333333333" as="geometry"/>
                </mxCell>
                <mxCell id="snrR_tLXZ6fpuTXq6NrR-26" style="edgeStyle=none;rounded=0;orthogonalLoop=1;jettySize=auto;html=1;exitX=0;exitY=0;exitDx=0;exitDy=0;entryX=1;entryY=1;entryDx=0;entryDy=0;shadow=1;strokeWidth=3;endArrow=none;endFill=0;endSize=6;targetPerimeterSpacing=0;" parent="1W6G8PqIG_CB1-VnXwp_-1" source="snrR_tLXZ6fpuTXq6NrR-1" target="snrR_tLXZ6fpuTXq6NrR-9" edge="1">
                    <mxGeometry relative="1" as="geometry"/>
                </mxCell>
                <mxCell id="snrR_tLXZ6fpuTXq6NrR-39" style="edgeStyle=none;rounded=0;orthogonalLoop=1;jettySize=auto;html=1;exitX=0.5;exitY=1;exitDx=0;exitDy=0;entryX=0.5;entryY=0;entryDx=0;entryDy=0;shadow=1;strokeWidth=3;endArrow=none;endFill=0;endSize=6;targetPerimeterSpacing=0;" parent="1W6G8PqIG_CB1-VnXwp_-1" source="snrR_tLXZ6fpuTXq6NrR-4" target="snrR_tLXZ6fpuTXq6NrR-9" edge="1">
                    <mxGeometry relative="1" as="geometry"/>
                </mxCell>
                <mxCell id="snrR_tLXZ6fpuTXq6NrR-10" value="" style="ellipse;whiteSpace=wrap;html=1;aspect=fixed;fillColor=#947659;strokeColor=none;strokeWidth=5;shadow=1;" parent="1W6G8PqIG_CB1-VnXwp_-1" vertex="1">
                    <mxGeometry y="259.79166666666663" width="30.20833333333333" height="30.20833333333333" as="geometry"/>
                </mxCell>
                <mxCell id="snrR_tLXZ6fpuTXq6NrR-27" style="edgeStyle=none;rounded=0;orthogonalLoop=1;jettySize=auto;html=1;exitX=0;exitY=1;exitDx=0;exitDy=0;entryX=1;entryY=0.5;entryDx=0;entryDy=0;shadow=1;strokeWidth=3;endArrow=none;endFill=0;endSize=6;targetPerimeterSpacing=0;" parent="1W6G8PqIG_CB1-VnXwp_-1" source="snrR_tLXZ6fpuTXq6NrR-1" target="snrR_tLXZ6fpuTXq6NrR-10" edge="1">
                    <mxGeometry relative="1" as="geometry"/>
                </mxCell>
                <mxCell id="snrR_tLXZ6fpuTXq6NrR-40" style="edgeStyle=none;rounded=0;orthogonalLoop=1;jettySize=auto;html=1;exitX=0;exitY=0.5;exitDx=0;exitDy=0;entryX=1;entryY=0.5;entryDx=0;entryDy=0;shadow=1;strokeWidth=3;endArrow=none;endFill=0;endSize=6;targetPerimeterSpacing=0;" parent="1W6G8PqIG_CB1-VnXwp_-1" source="snrR_tLXZ6fpuTXq6NrR-5" target="snrR_tLXZ6fpuTXq6NrR-10" edge="1">
                    <mxGeometry relative="1" as="geometry"/>
                </mxCell>
                <mxCell id="snrR_tLXZ6fpuTXq6NrR-17" style="rounded=0;orthogonalLoop=1;jettySize=auto;html=1;exitX=0.5;exitY=1;exitDx=0;exitDy=0;entryX=0.5;entryY=0;entryDx=0;entryDy=0;shadow=1;strokeWidth=3;endArrow=none;endFill=0;endSize=6;targetPerimeterSpacing=0;" parent="1W6G8PqIG_CB1-VnXwp_-1" source="snrR_tLXZ6fpuTXq6NrR-9" target="snrR_tLXZ6fpuTXq6NrR-10" edge="1">
                    <mxGeometry relative="1" as="geometry"/>
                </mxCell>
                <mxCell id="snrR_tLXZ6fpuTXq6NrR-35" style="edgeStyle=none;rounded=0;orthogonalLoop=1;jettySize=auto;html=1;exitX=0;exitY=0;exitDx=0;exitDy=0;entryX=1;entryY=1;entryDx=0;entryDy=0;shadow=1;strokeWidth=3;endArrow=none;endFill=0;endSize=6;targetPerimeterSpacing=0;" parent="1W6G8PqIG_CB1-VnXwp_-1" source="snrR_tLXZ6fpuTXq6NrR-11" target="snrR_tLXZ6fpuTXq6NrR-3" edge="1">
                    <mxGeometry relative="1" as="geometry"/>
                </mxCell>
                <mxCell id="snrR_tLXZ6fpuTXq6NrR-11" value="" style="ellipse;whiteSpace=wrap;html=1;aspect=fixed;fillColor=#3D2929;strokeColor=none;strokeWidth=5;shadow=1;" parent="1W6G8PqIG_CB1-VnXwp_-1" vertex="1">
                    <mxGeometry x="598.974358974359" y="253.74999999999997" width="30.20833333333333" height="30.20833333333333" as="geometry"/>
                </mxCell>
                <mxCell id="snrR_tLXZ6fpuTXq6NrR-38" style="edgeStyle=none;rounded=0;orthogonalLoop=1;jettySize=auto;html=1;exitX=1;exitY=0.5;exitDx=0;exitDy=0;entryX=0.02;entryY=0.64;entryDx=0;entryDy=0;shadow=1;strokeWidth=3;endArrow=none;endFill=0;endSize=6;targetPerimeterSpacing=0;entryPerimeter=0;" parent="1W6G8PqIG_CB1-VnXwp_-1" source="snrR_tLXZ6fpuTXq6NrR-5" target="snrR_tLXZ6fpuTXq6NrR-11" edge="1">
                    <mxGeometry relative="1" as="geometry"/>
                </mxCell>
                <mxCell id="snrR_tLXZ6fpuTXq6NrR-34" style="edgeStyle=none;rounded=0;orthogonalLoop=1;jettySize=auto;html=1;exitX=0.5;exitY=1;exitDx=0;exitDy=0;shadow=1;strokeWidth=3;endArrow=none;endFill=0;endSize=6;targetPerimeterSpacing=0;" parent="1W6G8PqIG_CB1-VnXwp_-1" source="snrR_tLXZ6fpuTXq6NrR-7" target="snrR_tLXZ6fpuTXq6NrR-11" edge="1">
                    <mxGeometry relative="1" as="geometry"/>
                </mxCell>
                <mxCell id="snrR_tLXZ6fpuTXq6NrR-46" style="edgeStyle=none;rounded=0;orthogonalLoop=1;jettySize=auto;html=1;exitX=1;exitY=0.5;exitDx=0;exitDy=0;entryX=0;entryY=0.5;entryDx=0;entryDy=0;shadow=1;strokeWidth=3;endArrow=none;endFill=0;endSize=6;targetPerimeterSpacing=0;" parent="1W6G8PqIG_CB1-VnXwp_-1" source="snrR_tLXZ6fpuTXq6NrR-43" target="snrR_tLXZ6fpuTXq6NrR-3" edge="1">
                    <mxGeometry relative="1" as="geometry"/>
                </mxCell>
                <mxCell id="snrR_tLXZ6fpuTXq6NrR-47" style="edgeStyle=none;rounded=0;orthogonalLoop=1;jettySize=auto;html=1;exitX=0.5;exitY=1;exitDx=0;exitDy=0;entryX=0.5;entryY=0;entryDx=0;entryDy=0;shadow=1;strokeWidth=3;endArrow=none;endFill=0;endSize=6;targetPerimeterSpacing=0;" parent="1W6G8PqIG_CB1-VnXwp_-1" source="snrR_tLXZ6fpuTXq6NrR-43" target="snrR_tLXZ6fpuTXq6NrR-6" edge="1">
                    <mxGeometry relative="1" as="geometry"/>
                </mxCell>
                <mxCell id="snrR_tLXZ6fpuTXq6NrR-43" value="" style="ellipse;whiteSpace=wrap;html=1;aspect=fixed;fillColor=#B35900;strokeColor=none;strokeWidth=4;fontColor=#000000;shadow=1;" parent="1W6G8PqIG_CB1-VnXwp_-1" vertex="1">
                    <mxGeometry x="320" y="78.54166666666666" width="30.20833333333333" height="30.20833333333333" as="geometry"/>
                </mxCell>
                <mxCell id="snrR_tLXZ6fpuTXq6NrR-45" style="edgeStyle=none;rounded=0;orthogonalLoop=1;jettySize=auto;html=1;exitX=1;exitY=0.5;exitDx=0;exitDy=0;entryX=0;entryY=0.5;entryDx=0;entryDy=0;shadow=1;strokeWidth=3;endArrow=none;endFill=0;endSize=6;targetPerimeterSpacing=0;" parent="1W6G8PqIG_CB1-VnXwp_-1" source="fICSuEFrbXyW4dKdM_m4-1" target="snrR_tLXZ6fpuTXq6NrR-43" edge="1">
                    <mxGeometry relative="1" as="geometry"/>
                </mxCell>
                <mxCell id="snrR_tLXZ6fpuTXq6NrR-44" style="edgeStyle=none;rounded=0;orthogonalLoop=1;jettySize=auto;html=1;exitX=0.5;exitY=1;exitDx=0;exitDy=0;entryX=0.5;entryY=0;entryDx=0;entryDy=0;shadow=1;strokeWidth=3;endArrow=none;endFill=0;endSize=6;targetPerimeterSpacing=0;" parent="1W6G8PqIG_CB1-VnXwp_-1" source="snrR_tLXZ6fpuTXq6NrR-8" target="snrR_tLXZ6fpuTXq6NrR-43" edge="1">
                    <mxGeometry relative="1" as="geometry"/>
                </mxCell>
            </root>
        </mxGraphModel>
    </diagram>
    <diagram id="DKKC9SnkNikeE7vKqUFk" name="dlt-types">
        <mxGraphModel dx="1031" dy="616" grid="1" gridSize="10" guides="1" tooltips="1" connect="1" arrows="1" fold="1" page="1" pageScale="1" pageWidth="827" pageHeight="1169" math="0" shadow="0">
            &#xa;
            <root>
                &#xa;
                <mxCell id="0"/>
                &#xa;
                <mxCell id="1" parent="0"/>
                &#xa;
                <mxCell id="LEAcFTC8h26ykCVqFIJl-1" value="" style="group;aspect=fixed;" vertex="1" connectable="0" parent="1">
                    &#xa;
                    <mxGeometry x="130" y="200" width="350" height="350" as="geometry"/>
                    &#xa;
                </mxCell>
                &#xa;
                <mxCell id="SwApRB6-n_Dj4oSe9ZMp-1" value="&lt;h1&gt;&lt;br&gt;&lt;/h1&gt;" style="ellipse;whiteSpace=wrap;html=1;aspect=fixed;shadow=1;fillColor=#F0ECCF;fillStyle=solid;gradientColor=none;gradientDirection=radial;strokeColor=none;" parent="LEAcFTC8h26ykCVqFIJl-1" vertex="1">
                    &#xa;
                    <mxGeometry width="350" height="350" as="geometry"/>
                    &#xa;
                </mxCell>
                &#xa;
                <mxCell id="trxCekxnBJKnMnk6tITM-1" value="&lt;h1 style=&quot;&quot;&gt;&lt;font size=&quot;1&quot; style=&quot;&quot; face=&quot;Helvetica&quot; color=&quot;#FFFFFF&quot;&gt;&lt;b style=&quot;font-size: 20px;&quot;&gt;TEMPO&lt;/b&gt;&lt;/font&gt;&lt;/h1&gt;" style="ellipse;whiteSpace=wrap;html=1;aspect=fixed;fillColor=#947659;strokeColor=none;strokeWidth=1;fontColor=#000000;gradientColor=none;gradientDirection=radial;shadow=1;" parent="LEAcFTC8h26ykCVqFIJl-1" vertex="1">
                    &#xa;
                    <mxGeometry x="35.37234042553192" y="163.82978723404256" width="104.25531914893617" height="104.25531914893617" as="geometry"/>
                    &#xa;
                </mxCell>
                &#xa;
                <mxCell id="HalbwC47PnLYSMUMtpFd-1" value="&lt;font size=&quot;1&quot; style=&quot;&quot; face=&quot;Helvetica&quot; color=&quot;#FFFFFF&quot;&gt;&lt;b style=&quot;font-size: 20px;&quot;&gt;BLOCKCHAIN&lt;/b&gt;&lt;/font&gt;" style="ellipse;whiteSpace=wrap;html=1;aspect=fixed;fillColor=#B35900;strokeColor=none;strokeWidth=1;gradientColor=none;gradientDirection=radial;shadow=1;" parent="LEAcFTC8h26ykCVqFIJl-1" vertex="1">
                    &#xa;
                    <mxGeometry x="163.82978723404256" y="148.93617021276594" width="148.93617021276594" height="148.93617021276594" as="geometry"/>
                    &#xa;
                </mxCell>
                &#xa;
                <mxCell id="cCSkHD7mx4UhL7OFquXX-1" value="&lt;font size=&quot;1&quot; face=&quot;Helvetica&quot;&gt;&lt;b style=&quot;font-size: 20px;&quot;&gt;DAG&lt;/b&gt;&lt;/font&gt;" style="ellipse;whiteSpace=wrap;html=1;aspect=fixed;fillColor=#D68400;fontColor=#ffffff;strokeColor=none;strokeWidth=1;gradientColor=none;gradientDirection=radial;shadow=1;" parent="LEAcFTC8h26ykCVqFIJl-1" vertex="1">
                    &#xa;
                    <mxGeometry x="178.72340425531914" y="37.234042553191486" width="96.80851063829786" height="96.80851063829786" as="geometry"/>
                    &#xa;
                </mxCell>
                &#xa;
                <mxCell id="Xey89Z6W8lW3w8EU58oA-1" value="&lt;font style=&quot;&quot;&gt;&lt;b style=&quot;&quot;&gt;&lt;font style=&quot;font-size: 15px;&quot;&gt;TAPLE&lt;/font&gt;&lt;/b&gt;&lt;/font&gt;" style="ellipse;whiteSpace=wrap;html=1;aspect=fixed;fillColor=#EBBC8D;fontColor=#ffffff;strokeColor=none;strokeWidth=1;gradientColor=none;gradientDirection=radial;shadow=1;" parent="LEAcFTC8h26ykCVqFIJl-1" vertex="1">
                    &#xa;
                    <mxGeometry x="67.02127659574468" y="67.02127659574468" width="55.85106382978723" height="55.85106382978723" as="geometry"/>
                    &#xa;
                </mxCell>
                &#xa;
                <mxCell id="LEAcFTC8h26ykCVqFIJl-2" value="&lt;b&gt;&lt;font style=&quot;font-size: 24px;&quot;&gt;DLT&lt;/font&gt;&lt;/b&gt;" style="text;html=1;strokeColor=none;fillColor=none;align=center;verticalAlign=middle;whiteSpace=wrap;rounded=0;fontFamily=Helvetica;fontSize=20;" vertex="1" parent="LEAcFTC8h26ykCVqFIJl-1">
                    &#xa;
                    <mxGeometry x="139.63" y="11.22999999999999" width="60" height="30" as="geometry"/>
                    &#xa;
                </mxCell>
                &#xa;
            </root>
            &#xa;
        </mxGraphModel>
    </diagram>
</mxfile>